<?xml version="1.0" encoding="utf-8"?>
<!-- Generator: Adobe Illustrator 26.0.2, SVG Export Plug-In . SVG Version: 6.00 Build 0)  -->
<svg version="1.1" id="Layer_1" xmlns="http://www.w3.org/2000/svg" xmlns:xlink="http://www.w3.org/1999/xlink" x="0px" y="0px"
	 viewBox="0 0 358 123.9" style="enable-background:new 0 0 358 123.9;" xml:space="preserve">
<style type="text/css">
	.st0{fill:#FFFFFF;}
</style>
<g id="SvgjsG1378">
	<path class="st0" d="M50,98.7l1-1L3.2,50L50,3.2L96.8,50L49,97.7L50,98.7l1-1L50,98.7l1,1L99.6,51c0.3-0.3,0.4-0.6,0.4-1
		c0-0.4-0.1-0.7-0.4-1L51,0.4c-0.5-0.5-1.4-0.5-1.9,0c0,0,0,0,0,0L0.4,49c-0.5,0.5-0.6,1.3-0.1,1.9c0,0,0,0,0.1,0.1L49,99.6
		c0.5,0.5,1.4,0.5,1.9,0L50,98.7z"/>
	<path class="st0" d="M50,83.9l1,1L84.9,51c0.3-0.3,0.4-0.6,0.4-1c0-0.4-0.1-0.7-0.4-1L51,15.1c-0.3-0.3-0.6-0.4-1-0.4
		c-0.4,0-0.7,0.1-1,0.4L15.1,49c-0.5,0.5-0.5,1.4,0,1.9c0,0,0,0,0,0l33.9,33.9c0.3,0.3,0.6,0.4,1,0.4c0.4,0,0.7-0.1,1-0.4L50,83.9
		l1.1-1.1L18,50l32-32l32,32L49,83L50,83.9l1-0.9L50,83.9z M69.2,50l-1-1L50,67.3L32.7,50L50,32.7L68.2,51L69.2,50l-1-1L69.2,50l1-1
		L51,29.9c-0.3-0.3-0.6-0.4-1-0.4c-0.4,0-0.7,0.1-1,0.4L29.9,49c-0.5,0.5-0.5,1.4,0,1.9L49,70.1c0.5,0.5,1.4,0.5,1.9,0c0,0,0,0,0,0
		L70.1,51c0.5-0.5,0.5-1.4,0-1.9c0,0,0,0,0,0L69.2,50z"/>
	<path class="st0" d="M45.6,50l1,1l3.5-3.5l2.5,2.5L50,52.5L46.5,49L45.6,50l0.9,1L45.6,50l-1,1l4.4,4.4c0.3,0.3,0.6,0.4,1,0.4
		c0.4,0,0.7-0.1,1-0.4l4.4-4.5c0.3-0.3,0.4-0.6,0.4-1c0-0.4-0.1-0.7-0.4-1L51,44.6c-0.5-0.5-1.4-0.5-1.9,0c0,0,0,0,0,0l-4.4,4.4
		c-0.5,0.5-0.5,1.4,0,1.9c0,0,0,0,0,0L45.6,50z"/>
	<path class="st0" d="M50,98.7l1-1L9.2,56c-0.5-0.5-1.4-0.5-1.9,0c0,0,0,0,0,0l-6.9,7c-0.5,0.5-0.5,1.3,0,1.9c0,0,0,0,0,0L49,113.6
		c0.3,0.3,0.6,0.4,1,0.4c0.4,0,0.7-0.1,1-0.4l48.6-48.7c0.2-0.3,0.4-0.6,0.4-1c0-0.4-0.1-0.7-0.4-0.9l-7-7c-0.5-0.5-1.4-0.5-1.9,0
		c0,0,0,0,0,0L49,97.7L50,98.7l0.9-1L50,98.7l0.9,0.9l40.8-40.7l5,5L50,110.7L3.2,63.9l5.1-5L49,99.6c0.5,0.5,1.4,0.5,1.9,0L50,98.7
		z"/>
</g>
<g id="SvgjsG1379">
	<path class="st0" d="M144.6,59.8v30.4h-6.3V59.8H144.6z M145,48.6c0,1.9-1.5,3.5-3.4,3.5c-1.9,0-3.5-1.5-3.5-3.5
		c0-1.9,1.5-3.5,3.4-3.5C143.4,45.1,145,46.7,145,48.6C145,48.6,145,48.6,145,48.6z M180.9,72.6v17.6h-6.4l0.1-0.2V73.2
		c0-6.2-1.6-8.9-6.8-8.9c-5.9,0-8,4.1-8,9.5v16.3h-6.3V59.8h6.3v4.9c0.9-2.7,4.4-5.2,8-5.4c6-0.4,10.2,1.5,12.1,6.5
		c1.3-4.2,5.4-6.2,9-6.5c8.2-0.6,13.2,3.4,13.2,13.3v17.5h-6.3V73.2c0-6.2-1.6-8.9-6.8-8.9S181.4,67.7,180.9,72.6L180.9,72.6z
		 M223.7,64.4c-5.2,0-9.5,4.4-9.5,10.6s4.2,10.6,9.5,10.6s9.4-4.4,9.4-10.6S228.9,64.4,223.7,64.4L223.7,64.4z M223.7,59.2
		c8.7,0,15.8,7.1,15.7,15.9c0,8.7-7.1,15.8-15.9,15.7c-8.7,0-15.7-7.1-15.7-15.8c-0.1-8.6,6.8-15.7,15.5-15.8
		C223.4,59.2,223.5,59.2,223.7,59.2L223.7,59.2z M261.5,59.2c8.7,0,15.2,6.8,15.2,15.8s-6.5,15.8-15.2,15.8
		c-3.1-0.1-6.2-1.1-8.7-2.9v2.3h-6.4V44h6.3v18.2C255.3,60.3,258.3,59.3,261.5,59.2L261.5,59.2z M260.9,85.6c5.2,0,9.5-4.4,9.5-10.6
		s-4.2-10.6-9.5-10.6c-3.4-0.1-6.6,1.7-8.1,4.8c-0.9,1.8-1.4,3.8-1.4,5.8c0,2,0.4,4,1.4,5.7C254.3,83.8,257.4,85.7,260.9,85.6
		L260.9,85.6z M318.9,61c0,9.4-7.3,16.9-16.2,17h-11.1v12.2h-6.9V44h18C311.6,44.1,318.9,51.6,318.9,61L318.9,61z M302.5,72.3
		c5.3,0,9.5-5.1,9.5-11.3s-4.2-11.3-9.5-11.3h-11v22.7H302.5z M358,44v5.7h-14.3v40.5h-6.8V49.7h-14.3V44H358z"/>
</g>
</svg>
